<?xml version="1.0" encoding="UTF-8" standalone="no"?>
<!DOCTYPE svg PUBLIC "-//W3C//DTD SVG 1.0//EN" "http://www.w3.org/TR/2001/REC-SVG-20010904/DTD/svg10.dtd">
<!-- Generiert durch Microsoft Visio 11.0, SVG Export, v1.0 miso_sampling_with_filter.svg Page-1 -->
<svg xmlns="http://www.w3.org/2000/svg" xmlns:xlink="http://www.w3.org/1999/xlink" xmlns:ev="http://www.w3.org/2001/xml-events"
		xmlns:v="http://schemas.microsoft.com/visio/2003/SVGExtensions/" width="2.29689in" height="0.614235in"
		viewBox="0 0 165.376 44.2249" xml:space="preserve" color-interpolation-filters="sRGB" class="st11">
	<title>MISO Filter Sampling time</title>
	<v:documentProperties v:langID="1031" v:metric="true" v:viewMarkup="false">
		<v:userDefs>
			<v:ud v:nameU="msvSubprocessMaster" v:prompt="" v:val="VT4(Box)"/>
			<v:ud v:nameU="msvNoAutoConnect" v:val="VT0(1):26"/>
		</v:userDefs>
	</v:documentProperties>

	<style type="text/css">
	<![CDATA[
		.st1 {stroke:#000000;stroke-dasharray:1.75,1.25;stroke-linecap:round;stroke-linejoin:round;stroke-width:0.25}
		.st2 {stroke:#000000;stroke-linecap:round;stroke-linejoin:round;stroke-width:0.5}
		.st3 {marker-start:url(#mrkr5-13);stroke:#000000;stroke-linecap:round;stroke-linejoin:round;stroke-width:0.24}
		.st4 {fill:#000000;fill-opacity:1;stroke:#000000;stroke-opacity:1;stroke-width:0.14285714285714}
		.st5 {fill:none;stroke:none;stroke-linecap:round;stroke-linejoin:round;stroke-width:0.75}
		.st6 {fill:#000000;font-family:Calibri;font-size:0.499992em}
		.st7 {fill:#000000;stroke:none;stroke-linecap:round;stroke-linejoin:round;stroke-width:0.24}
		.st8 {fill:#ffffff;stroke:none;stroke-linecap:round;stroke-linejoin:round;stroke-width:0.75}
		.st9 {fill:#000000;font-family:Calibri;font-size:0.333344em;font-style:italic;font-weight:bold}
		.st10 {fill:#000000;font-family:Calibri;font-size:0.333344em}
		.st11 {fill:none;fill-rule:evenodd;font-size:12px;overflow:visible;stroke-linecap:square;stroke-miterlimit:3}
	]]>
	</style>

	<defs id="Markers">
		<g id="lend5">
			<path d="M 2 1 L 0 0 L 1.98117 -0.993387 C 1.67173 -0.364515 1.67301 0.372641 1.98465 1.00043 " style="stroke:none"/>
		</g>
		<marker id="mrkr5-13" class="st4" v:arrowType="5" v:arrowSize="0" v:setback="0" refX="0" orient="auto"
				markerUnits="strokeWidth" overflow="visible">
			<use xlink:href="#lend5" transform="scale(7) "/>
		</marker>
	</defs>
	<g v:mID="0" v:index="1" v:groupContext="foregroundPage">
		<title>Zeichenblatt-1</title>
		<v:pageProperties v:drawingScale="0.0393701" v:pageScale="0.0393701" v:drawingUnits="24" v:shadowOffsetX="8.50394"
				v:shadowOffsetY="-8.50394"/>
		<v:layer v:name="Beschriftung" v:index="0"/>
		<g id="shape11-1" v:mID="11" v:groupContext="shape" transform="translate(78.7072,0.25) rotate(90)">
			<title>Tabelle.11</title>
			<path d="M0 44.22 L34.02 44.22" class="st1"/>
		</g>
		<g id="group2-4" transform="translate(17.4744,-35.471)" v:mID="2" v:groupContext="group">
			<title>Tabelle.2</title>
			<g id="shape1-5" v:mID="1" v:groupContext="shape">
				<title>Tabelle.1</title>
				<path d="M0 44.22 L5.67 44.22 L5.67 38.56 L11.34 38.56 L11.34 44.22" class="st2"/>
			</g>
			<g id="shape13-8" v:mID="13" v:groupContext="shape" transform="translate(49.8942,39.6895) rotate(90)">
				<title>Tabelle.13</title>
				<path d="M0 44.22 L1.7 44.22" class="st3"/>
			</g>
		</g>
		<g id="group3-14" transform="translate(28.813,-35.471)" v:mID="3" v:groupContext="group">
			<title>Tabelle.3</title>
			<g id="shape4-15" v:mID="4" v:groupContext="shape">
				<title>Tabelle.4</title>
				<path d="M0 44.22 L5.67 44.22 L5.67 38.56 L11.34 38.56 L11.34 44.22" class="st2"/>
			</g>
			<g id="shape5-18" v:mID="5" v:groupContext="shape" transform="translate(49.8942,39.6895) rotate(90)">
				<title>Tabelle.5</title>
				<path d="M0 44.22 L1.7 44.22" class="st3"/>
			</g>
		</g>
		<g id="group6-23" transform="translate(40.1516,-35.471)" v:mID="6" v:groupContext="group">
			<title>Tabelle.6</title>
			<g id="shape7-24" v:mID="7" v:groupContext="shape">
				<title>Tabelle.7</title>
				<path d="M0 44.22 L5.67 44.22 L5.67 38.56 L11.34 38.56 L11.34 44.22" class="st2"/>
			</g>
			<g id="shape8-27" v:mID="8" v:groupContext="shape" transform="translate(49.8942,39.6895) rotate(90)">
				<title>Tabelle.8</title>
				<path d="M0 44.22 L1.7 44.22" class="st3"/>
			</g>
		</g>
		<g id="group9-32" transform="translate(51.4902,-35.471)" v:mID="9" v:groupContext="group">
			<title>Tabelle.9</title>
			<g id="shape10-33" v:mID="10" v:groupContext="shape">
				<title>Tabelle.10</title>
				<path d="M0 44.22 L5.67 44.22 L5.67 38.56 L11.34 38.56 L11.34 44.22" class="st2"/>
			</g>
			<g id="shape14-36" v:mID="14" v:groupContext="shape" transform="translate(49.8942,39.6895) rotate(90)">
				<title>Tabelle.14</title>
				<path d="M0 44.22 L1.7 44.22" class="st3"/>
			</g>
		</g>
		<g id="group15-41" transform="translate(62.8287,-35.471)" v:mID="15" v:groupContext="group">
			<title>Tabelle.15</title>
			<g id="shape16-42" v:mID="16" v:groupContext="shape">
				<title>Tabelle.16</title>
				<path d="M0 44.22 L5.67 44.22 L5.67 38.56 L11.34 38.56 L11.34 44.22" class="st2"/>
			</g>
			<g id="shape17-45" v:mID="17" v:groupContext="shape" transform="translate(49.8942,39.6895) rotate(90)">
				<title>Tabelle.17</title>
				<path d="M0 44.22 L1.7 44.22" class="st3"/>
			</g>
		</g>
		<g id="group18-50" transform="translate(74.1673,-35.471)" v:mID="18" v:groupContext="group">
			<title>Tabelle.18</title>
			<g id="shape19-51" v:mID="19" v:groupContext="shape">
				<title>Tabelle.19</title>
				<path d="M0 44.22 L5.67 44.22 L5.67 38.56 L11.34 38.56 L11.34 44.22" class="st2"/>
			</g>
			<g id="shape20-54" v:mID="20" v:groupContext="shape" transform="translate(49.8942,39.6895) rotate(90)">
				<title>Tabelle.20</title>
				<path d="M0 44.22 L1.7 44.22" class="st3"/>
			</g>
		</g>
		<g id="group21-59" transform="translate(85.5059,-35.471)" v:mID="21" v:groupContext="group">
			<title>Tabelle.21</title>
			<g id="shape22-60" v:mID="22" v:groupContext="shape">
				<title>Tabelle.22</title>
				<path d="M0 44.22 L5.67 44.22 L5.67 38.56 L11.34 38.56 L11.34 44.22" class="st2"/>
			</g>
			<g id="shape23-63" v:mID="23" v:groupContext="shape" transform="translate(49.8942,39.6895) rotate(90)">
				<title>Tabelle.23</title>
				<path d="M0 44.22 L1.7 44.22" class="st3"/>
			</g>
		</g>
		<g id="group24-68" transform="translate(96.8445,-35.471)" v:mID="24" v:groupContext="group">
			<title>Tabelle.24</title>
			<g id="shape25-69" v:mID="25" v:groupContext="shape">
				<title>Tabelle.25</title>
				<path d="M0 44.22 L5.67 44.22 L5.67 38.56 L11.34 38.56 L11.34 44.22" class="st2"/>
			</g>
			<g id="shape26-72" v:mID="26" v:groupContext="shape" transform="translate(49.8942,39.6895) rotate(90)">
				<title>Tabelle.26</title>
				<path d="M0 44.22 L1.7 44.22" class="st3"/>
			</g>
		</g>
		<g id="group27-77" transform="translate(108.183,-35.471)" v:mID="27" v:groupContext="group">
			<title>Tabelle.27</title>
			<g id="shape28-78" v:mID="28" v:groupContext="shape">
				<title>Tabelle.28</title>
				<path d="M0 44.22 L5.67 44.22 L5.67 38.56 L11.34 38.56 L11.34 44.22" class="st2"/>
			</g>
			<g id="shape29-81" v:mID="29" v:groupContext="shape" transform="translate(49.8942,39.6895) rotate(90)">
				<title>Tabelle.29</title>
				<path d="M0 44.22 L1.7 44.22" class="st3"/>
			</g>
		</g>
		<g id="group30-86" transform="translate(119.522,-35.471)" v:mID="30" v:groupContext="group">
			<title>Tabelle.30</title>
			<g id="shape31-87" v:mID="31" v:groupContext="shape">
				<title>Tabelle.31</title>
				<path d="M0 44.22 L5.67 44.22 L5.67 38.56 L11.34 38.56 L11.34 44.22" class="st2"/>
			</g>
			<g id="shape32-90" v:mID="32" v:groupContext="shape" transform="translate(49.8942,39.6895) rotate(90)">
				<title>Tabelle.32</title>
				<path d="M0 44.22 L1.7 44.22" class="st3"/>
			</g>
		</g>
		<g id="group33-95" transform="translate(130.86,-35.471)" v:mID="33" v:groupContext="group">
			<title>Tabelle.33</title>
			<g id="shape34-96" v:mID="34" v:groupContext="shape">
				<title>Tabelle.34</title>
				<path d="M0 44.22 L5.67 44.22 L5.67 38.56 L11.34 38.56 L11.34 44.22" class="st2"/>
			</g>
			<g id="shape35-99" v:mID="35" v:groupContext="shape" transform="translate(49.8942,39.6895) rotate(90)">
				<title>Tabelle.35</title>
				<path d="M0 44.22 L1.7 44.22" class="st3"/>
			</g>
		</g>
		<g id="group36-104" transform="translate(142.199,-35.471)" v:mID="36" v:groupContext="group">
			<title>Tabelle.36</title>
			<g id="shape37-105" v:mID="37" v:groupContext="shape">
				<title>Tabelle.37</title>
				<path d="M0 44.22 L5.67 44.22 L5.67 38.56 L11.34 38.56 L11.34 44.22" class="st2"/>
			</g>
			<g id="shape38-108" v:mID="38" v:groupContext="shape" transform="translate(49.8942,39.6895) rotate(90)">
				<title>Tabelle.38</title>
				<path d="M0 44.22 L1.7 44.22" class="st3"/>
			</g>
		</g>
		<g id="group39-113" transform="translate(153.537,-35.471)" v:mID="39" v:groupContext="group">
			<title>Tabelle.39</title>
			<g id="shape40-114" v:mID="40" v:groupContext="shape">
				<title>Tabelle.40</title>
				<path d="M0 44.22 L5.67 44.22 L5.67 38.56 L11.34 38.56 L11.34 44.22" class="st2"/>
			</g>
			<g id="shape41-117" v:mID="41" v:groupContext="shape" transform="translate(49.8942,39.6895) rotate(90)">
				<title>Tabelle.41</title>
				<path d="M0 44.22 L1.7 44.22" class="st3"/>
			</g>
		</g>
		<g id="shape43-122" v:mID="43" v:groupContext="shape" transform="translate(17.4744,-24.1324)">
			<title>Tabelle.43</title>
			<path d="M0 38.56 L17.01 38.56 L17.01 44.22 L73.7 44.22 L73.7 38.56 L130.39 38.56 L130.39 44.22 L147.4 44.22"
					class="st2"/>
		</g>
		<g id="shape44-125" v:mID="44" v:groupContext="shape" transform="translate(17.4744,-12.7938)">
			<title>Tabelle.44</title>
			<path d="M0 44.22 L17.01 44.22 L17.01 38.56 L130.39 38.56 L130.39 44.13 L147.4 44.13" class="st2"/>
		</g>
		<g id="shape12-128" v:mID="12" v:groupContext="shape" transform="translate(135.4,0.25) rotate(90)">
			<title>Tabelle.12</title>
			<path d="M0 44.22 L34.02 44.22" class="st1"/>
		</g>
		<g id="shape45-131" v:mID="45" v:groupContext="shape" transform="translate(192.093,0.25) rotate(90)">
			<title>Tabelle.45</title>
			<path d="M0 44.22 L34.02 44.22" class="st1"/>
		</g>
		<g id="shape42-134" v:mID="42" v:groupContext="shape" transform="translate(3.30118,-35.5182)">
			<title>Tabelle.42</title>
			<desc>CLK</desc>
			<v:textBlock v:margins="rect(0,0,0,0)" v:tabSpace="42.5197"/>
			<v:textRect cx="5.66929" cy="41.4139" width="11.34" height="5.62205"/>
			<rect x="0" y="38.6029" width="11.3386" height="5.62205" class="st5"/>
			<text x="2.5" y="43.21" class="st6" v:langID="1031"><v:paragraph v:horizAlign="2"/><v:tabList/>CLK</text>		</g>
		<g id="shape46-137" v:mID="46" v:groupContext="shape" transform="translate(3.30118,-24.1324)">
			<title>Tabelle.46</title>
			<desc>SCK</desc>
			<v:textBlock v:margins="rect(0,0,0,0)" v:tabSpace="42.5197"/>
			<v:textRect cx="5.66929" cy="41.4139" width="11.34" height="5.62205"/>
			<rect x="0" y="38.6029" width="11.3386" height="5.62205" class="st5"/>
			<text x="2.27" y="43.21" class="st6" v:langID="1031"><v:paragraph v:horizAlign="2"/><v:tabList/>SCK</text>		</g>
		<g id="shape47-140" v:mID="47" v:groupContext="shape" transform="translate(0.75,-12.8411)">
			<title>Tabelle.47</title>
			<desc>MISO</desc>
			<v:textBlock v:margins="rect(0,0,0,0)" v:tabSpace="42.5197"/>
			<v:textRect cx="6.94488" cy="41.4139" width="13.89" height="5.62205"/>
			<rect x="0" y="38.6029" width="13.8898" height="5.62205" class="st5"/>
			<text x="0.52" y="43.21" class="st6" v:langID="1031"><v:paragraph v:horizAlign="2"/><v:tabList/>MISO</text>		</g>
		<g id="shape50-143" v:mID="50" v:groupContext="shape" transform="translate(89.8996,-17.1875)">
			<title>Tabelle.50</title>
			<ellipse cx="1.27559" cy="42.9493" rx="1.27559" ry="1.27559" class="st7"/>
		</g>
		<g id="shape51-145" v:mID="51" v:groupContext="shape" transform="translate(78.561,-17.1875)">
			<title>Tabelle.51</title>
			<ellipse cx="1.27559" cy="42.9493" rx="1.27559" ry="1.27559" class="st7"/>
		</g>
		<g id="shape52-147" v:mID="52" v:groupContext="shape" transform="translate(67.2224,-17.1875)">
			<title>Tabelle.52</title>
			<ellipse cx="1.27559" cy="42.9493" rx="1.27559" ry="1.27559" class="st7"/>
		</g>
		<g id="shape53-149" v:mID="53" v:groupContext="shape" transform="translate(101.238,-17.1875)">
			<title>Tabelle.53</title>
			<ellipse cx="1.27559" cy="42.9493" rx="1.27559" ry="1.27559" class="st7"/>
		</g>
		<g id="shape54-151" v:mID="54" v:groupContext="shape" transform="translate(112.577,-17.1875)">
			<title>Tabelle.54</title>
			<ellipse cx="1.27559" cy="42.9493" rx="1.27559" ry="1.27559" class="st7"/>
		</g>
		<g id="shape49-153" v:mID="49" v:groupContext="shape" transform="translate(76.0098,-8.82533)">
			<title>Tabelle.49</title>
			<desc>MISO_FILT_STG=5</desc>
			<v:textBlock v:margins="rect(0,0,0,0)" v:tabSpace="42.5197"/>
			<v:textRect cx="15.1654" cy="42.2407" width="30.34" height="3.9685"/>
			<rect x="0" y="40.2564" width="30.3307" height="3.9685" class="st8"/>
			<text x="0.13" y="43.44" class="st9" v:langID="1031"><v:paragraph v:horizAlign="1"/><v:tabList/>MISO_FILT_STG=5</text>		</g>
		<g id="shape55-156" v:mID="55" v:groupContext="shape" transform="translate(55.8839,-17.1875)">
			<title>Tabelle.55</title>
			<ellipse cx="1.27559" cy="42.9493" rx="1.27559" ry="1.27559" class="st7"/>
		</g>
		<g id="shape56-158" v:mID="56" v:groupContext="shape" transform="translate(44.5453,-17.1875)">
			<title>Tabelle.56</title>
			<ellipse cx="1.27559" cy="42.9493" rx="1.27559" ry="1.27559" class="st7"/>
		</g>
		<g id="shape57-160" v:mID="57" v:groupContext="shape" transform="translate(33.2067,-14.2112)">
			<title>Tabelle.57</title>
			<ellipse cx="1.27559" cy="42.9493" rx="1.27559" ry="1.27559" class="st7"/>
		</g>
		<g id="shape58-162" v:mID="58" v:groupContext="shape" transform="translate(21.8681,-11.3765)">
			<title>Tabelle.58</title>
			<ellipse cx="1.27559" cy="42.9493" rx="1.27559" ry="1.27559" class="st7"/>
		</g>
		<g id="shape59-164" v:mID="59" v:groupContext="shape" transform="translate(123.915,-17.1875)">
			<title>Tabelle.59</title>
			<ellipse cx="1.27559" cy="42.9493" rx="1.27559" ry="1.27559" class="st7"/>
		</g>
		<g id="shape60-166" v:mID="60" v:groupContext="shape" transform="translate(135.254,-17.1875)">
			<title>Tabelle.60</title>
			<ellipse cx="1.27559" cy="42.9493" rx="1.27559" ry="1.27559" class="st7"/>
		</g>
		<g id="shape61-168" v:mID="61" v:groupContext="shape" transform="translate(146.593,-14.3529)">
			<title>Tabelle.61</title>
			<ellipse cx="1.27559" cy="42.9493" rx="1.27559" ry="1.27559" class="st7"/>
		</g>
		<g id="shape62-170" v:mID="62" v:groupContext="shape" transform="translate(157.931,-11.66)">
			<title>Tabelle.62</title>
			<ellipse cx="1.27559" cy="42.9493" rx="1.27559" ry="1.27559" class="st7"/>
		</g>
		<g id="shape63-172" v:mID="63" v:groupContext="shape" transform="translate(15.5059,-5.97691)">
			<title>Tabelle.63</title>
			<desc>Sampling</desc>
			<v:textBlock v:margins="rect(0,0,0,0)" v:tabSpace="42.5197"/>
			<v:textRect cx="7.6378" cy="41.6423" width="15.28" height="5.16535"/>
			<rect x="0" y="39.0596" width="15.2756" height="5.16535" class="st5"/>
			<text x="0.4" y="42.84" class="st10" v:langID="1031"><v:paragraph v:horizAlign="2"/><v:tabList/>Sampling</text>		</g>
		<g id="shape65-175" v:mID="65" v:groupContext="shape" v:layerMember="0" transform="translate(65.1969,-0.132418)">
			<title>Umgekehrte geschweifte Klammer</title>
			<desc>Evaluated for MISO SFR input</desc>
			<v:userDefs>
				<v:ud v:nameU="visVersion" v:prompt="" v:val="VT0(14):26"/>
				<v:ud v:nameU="msvStructureType" v:prompt="" v:val="VT4(Callout)"/>
				<v:ud v:nameU="msvSDTargetIntersection" v:prompt="" v:val="VT6(PNT(0.36166121177624,0.12073490813648)):40"/>
				<v:ud v:nameU="msvSDCalloutNoHighlight" v:prompt="" v:val="VT0(0):5"/>
				<v:ud v:nameU="msvSDCalloutStyle" v:prompt="" v:val="VT0(13):26"/>
				<v:ud v:nameU="msvSDCalloutStyleCount" v:prompt="" v:val="VT0(20):26"/>
				<v:ud v:nameU="msvShapeCategories" v:prompt="" v:val="VT0(0):26"/>
				<v:ud v:nameU="Orientation" v:prompt="" v:val="VT0(0):26"/>
				<v:ud v:nameU="HideLeader" v:prompt="" v:val="VT0(1):5"/>
				<v:ud v:nameU="AttachToSide" v:prompt="" v:val="VT0(1):5"/>
				<v:ud v:nameU="ResizeWithText" v:prompt="" v:val="VT0(1):5"/>
				<v:ud v:nameU="Side" v:prompt="" v:val="VT0(2):26"/>
				<v:ud v:nameU="LeaderBegin" v:prompt="" v:val="VT4(Unused)"/>
				<v:ud v:nameU="LeaderEnd" v:prompt="" v:val="VT6(PNT(0.36166121177624,0.12073490813648)):40"/>
				<v:ud v:nameU="WHBoxIntersection" v:prompt="" v:val="VT6(PNT(0.36417322834646,0.078740157480315)):40"/>
				<v:ud v:nameU="IsEndInterior" v:prompt="" v:val="VT0(0):5"/>
				<v:ud v:nameU="Extension" v:prompt="" v:val="VT0(0.019685039370079):1"/>
				<v:ud v:nameU="Inset" v:prompt="" v:val="VT0(-0.014763779527559):1"/>
				<v:ud v:nameU="SideMidpoint" v:prompt="" v:val="VT6(PNT(0.36417322834646,0.078740157480315)):40"/>
				<v:ud v:nameU="fnMidpointOffset" v:prompt="" v:val="VT6(PNT(0.36417322834646,0.078740157480315)):40"/>
			</v:userDefs>
			<v:textBlock v:margins="rect(0,0,0,0)" v:tabSpace="42.5197"/>
			<v:textRect cx="26.2205" cy="41.9572" width="52.45" height="3.40157"/>
			<path d="M0 37.49 A1.06302 1.06302 -180 0 0 1.06 38.56 L25.16 38.56 A1.06302 1.06302 0 0 1 26.22 39.62 A1.06302 1.06302
						 0 0 1 27.28 38.56 L51.38 38.56 A1.06302 1.06302 -180 0 0 52.44 37.49" class="st2"/>
			<text x="2.37" y="43.16" class="st10" v:langID="1031"><v:paragraph v:horizAlign="1"/><v:tabList/>Evaluated for MISO SFR input</text>		</g>
	</g>
</svg>
